<?xml version="1.0" encoding="UTF-8" standalone="no"?>
<!-- Created with Inkscape (http://www.inkscape.org/) -->

<svg
   xmlns:dc="http://purl.org/dc/elements/1.1/"
   xmlns:cc="http://creativecommons.org/ns#"
   xmlns:rdf="http://www.w3.org/1999/02/22-rdf-syntax-ns#"
   xmlns:svg="http://www.w3.org/2000/svg"
   xmlns="http://www.w3.org/2000/svg"
   xmlns:sodipodi="http://sodipodi.sourceforge.net/DTD/sodipodi-0.dtd"
   xmlns:inkscape="http://www.inkscape.org/namespaces/inkscape"
   version="1.1"
   id="svg3734"
   width="178.48711"
   height="178.38097"
   viewBox="0 0 178.48711 178.38097"
   sodipodi:docname="icon.svg"
   inkscape:version="0.92.1 r">
  <metadata
     id="metadata3740">
    <rdf:RDF>
      <cc:Work
         rdf:about="">
        <dc:format>image/svg+xml</dc:format>
        <dc:type
           rdf:resource="http://purl.org/dc/dcmitype/StillImage" />
        <dc:title></dc:title>
      </cc:Work>
    </rdf:RDF>
  </metadata>
  <defs
     id="defs3738" />
  <sodipodi:namedview
     pagecolor="#ffffff"
     bordercolor="#666666"
     borderopacity="1"
     objecttolerance="10"
     gridtolerance="10"
     guidetolerance="10"
     inkscape:pageopacity="0"
     inkscape:pageshadow="2"
     inkscape:window-width="2560"
     inkscape:window-height="1025"
     id="namedview3736"
     showgrid="false"
     fit-margin-top="0"
     fit-margin-left="0"
     fit-margin-right="0"
     fit-margin-bottom="0"
     inkscape:zoom="3.9353632"
     inkscape:cx="90.72949"
     inkscape:cy="88.579918"
     inkscape:window-x="1920"
     inkscape:window-y="27"
     inkscape:window-maximized="1"
     inkscape:current-layer="g3744" />
  <g
     id="g3744"
     transform="translate(-14.978669,-15.907117)">
    <path
       style="fill:#6e04db;stroke-width:0.90566039"
       d="m 93.242428,193.77541 c -29.749668,-4.11944 -55.879839,-22.847 -68.818763,-49.32258 -12.593328,-25.76842 -12.593328,-53.024032 0,-78.792452 11.335966,-23.195613 32.831673,-40.565315 58.44426,-47.226144 12.250062,-3.18576 29.546565,-3.380036 41.485565,-0.46597 33.53804,8.185945 58.86675,33.129972 67.27999,66.258152 2.44307,9.619924 2.44307,32.040454 0,41.660374 -8.2382,32.43895 -33.1714,57.53456 -65.24593,65.67093 -9.57641,2.42926 -24.43674,3.42353 -33.145122,2.21769 z m 49.334392,-40.33067 c 1.91533,-1.91532 1.81632,-2.42768 -0.96328,-4.98499 -4.92053,-4.527 -9.59999,-19.55328 -7.66545,-24.6146 0.5244,-1.37196 2.86149,-3.81725 5.19354,-5.43397 7.22431,-5.00832 9.58604,-7.2709 10.91863,-10.46025 1.17097,-2.80251 1.54377,-3.02886 4.17874,-2.53711 4.34201,0.8103 8.0845,-1.9252 11.1188,-8.127084 2.06938,-4.22967 2.65671,-6.923114 3.13146,-14.360561 0.32139,-5.034944 1.08901,-10.097422 1.70583,-11.249951 1.6522,-3.087181 0.57525,-3.387703 -4.23546,-1.181895 -5.18919,2.379348 -6.60537,2.55908 -12.45019,1.580099 -3.42,-0.572836 -5.22318,-1.505985 -7.36743,-3.812676 -5.02163,-5.402039 -7.46727,-3.466406 -9.83366,7.782961 -0.7776,3.69663 -1.59486,6.902183 -1.81613,7.123453 -0.22128,0.22127 -7.28012,0.373407 -15.68633,0.33808 -11.42781,-0.04803 -16.74704,-0.456749 -21.082689,-1.619985 -10.762566,-2.887547 -20.729056,-1.860623 -27.987351,2.883751 -6.662748,4.355095 -21.672579,4.99627 -29.034917,1.240286 -5.171451,-2.638278 -6.721325,-5.550268 -6.832909,-12.838059 -0.05183,-3.385265 -0.459379,-6.210816 -0.90566,-6.279001 -1.60519,-0.24525 -3.049035,4.304601 -3.05758,9.635065 -0.01907,11.896872 10.047824,19.673108 25.700878,19.852809 l 6.247171,0.07173 1.571453,4.821038 c 0.8643,2.65156 2.652419,5.94932 3.9736,7.32833 2.843989,2.96848 2.639374,3.83863 -3.112436,13.23597 -4.493793,7.34199 -4.456978,9.56777 0.279416,16.89331 4.258848,6.58694 7.071602,8.95402 11.316442,9.52338 2.915486,0.39104 3.991009,0.0992 5.6132,-1.52295 l 2.006683,-2.00668 2.853179,2.75165 c 4.679098,4.51259 12.612656,6.28806 15.03822,3.36542 2.31951,-2.79483 0.75887,-5.37395 -4.363949,-7.2119 -3.578174,-1.28376 -5.546744,-2.69356 -7.471699,-5.35088 -3.036529,-4.1918 -3.324613,-7.85822 -1.183864,-15.06691 l 1.42968,-4.81425 5.495628,0.5744 c 3.022587,0.31592 9.330454,0.5744 14.017464,0.5744 h 8.52185 l 1.82881,4.13432 c 1.60461,3.6275 1.75182,5.2202 1.20081,12.99215 -0.7533,10.62535 -0.007,12.76032 4.45815,12.76032 1.85489,0 3.62717,0.6957 4.64918,1.82501 2.9777,3.29032 10.23831,4.54963 12.60217,2.18577 z m -67.515515,-13.9796 c -2.411272,-1.40886 -4.561013,-5.36704 -3.953862,-7.28 0.655611,-2.06565 2.251048,-2.37967 2.251048,-0.44307 0,0.72984 1.222642,2.71949 2.716981,4.42145 1.49434,1.70195 2.716981,3.34633 2.716981,3.65416 0,0.82433 -2.04813,0.63082 -3.731148,-0.35254 z"
       id="path3746"
       inkscape:connector-curvature="0" />
  </g>
</svg>
